#!OML:ASF X:\für Bonn\!DataBase\2005_08_12_Daniel\c3d\Daniel.ASF
:FULLY-SPECIFIED
:DEGREES
36
root -12.2309 20.5129 -1.19436 501.207 94.9547 -2011.71
lowerback 13.7828 -1.22064 2.80846
upperback 4.72279 -1.06304 -0.595013
thorax -2.81374 -0.428541 -2.04206
lowerneck -6.85109 1.87281 -8.94088
upperneck -0.2635 3.1885 2.52647
head 0.912088 1.64639 2.44905
rclavicle -1.54058e-015 1.15295e-014
rhumerus -97.2955 -22.2132 46.3019
rradius 10.9018
rwrist 158.123
rhand -24.5115 26.1818
rfingers 7.12502
rthumb 1.98332 -3.78875
lclavicle -1.54058e-015 1.15295e-014
lhumerus -78.189 9.85259 27.8416
lradius 14.1784
lwrist -65.2469
lhand -3.95255 -17.7676
lfingers 7.12502
lthumb 21.7995 11.0247
rfemur -3.50629 -3.38692 24.4067
rtibia 45.9066
rfoot 18.2978 -7.01884
rtoes -8.06207
lfemur -7.47543 4.67279 -18.8255
ltibia 55.3844
lfoot 19.1218 -6.17715
ltoes -4.89162
37
root -12.0073 20.5273 -1.20032 501.356 95.0551 -2011.53
lowerback 14.3848 -1.22007 2.67322
upperback 4.75962 -1.05404 -0.590365
thorax -3.09663 -0.42397 -1.95644
lowerneck -7.00559 1.90012 -8.93385
upperneck -0.0073705 3.23666 2.59728
head 1.01818 1.66492 2.48024
rclavicle -2.43511e-015 3.97569e-015
rhumerus -95.6077 -22.196 42.2993
rradius 10.4543
rwrist 153.775
rhand -25.5239 25.9683
rfingers 7.12502
rthumb 1.00555 -4.00911
lclavicle -2.43511e-015 3.97569e-015
lhumerus -78.5516 9.44618 29.3071
lradius 14.5906
lwrist -63.1388
lhand -4.3725 -17.9477
lfingers 7.12502
lthumb 21.3962 10.8909
rfemur -4.01488 -3.6431 24.4515
rtibia 45.2415
rfoot 16.8537 -6.82306
rtoes -9.31126
lfemur -8.09047 4.974 -18.633
ltibia 54.7487
lfoot 18.1127 -6.97376
ltoes -5.53852
38
root -11.7864 20.5289 -1.20686 501.595 95.1227 -2011.38
lowerback 14.8454 -1.22255 2.51713
upperback 4.79247 -1.05947 -0.587014
thorax -3.30731 -0.426154 -1.85937
lowerneck -7.34572 1.92605 -8.89039
upperneck 0.384435 3.29813 2.64875
head 1.20132 1.68732 2.50563
rclavicle -3.72721e-015 7.55382e-015
rhumerus -91.3606 -22.3241 31.3702
rradius 9.83731
rwrist 142.789
rhand -25.6288 25.4382
rfingers 7.12502
rthumb 0.904305 -4.53962
lclavicle -3.72721e-015 7.55382e-015
lhumerus -78.9182 9.46096 29.9736
lradius 14.885
lwrist -61.929
lhand -4.91144 -18.1107
lfingers 7.12502
lthumb 20.8785 10.7858
rfemur -4.69616 -3.88507 24.4881
rtibia 44.5448
rfoot 15.6275 -6.52039
rtoes -10.0544
lfemur -8.90015 5.1804 -18.4842
ltibia 54.1779
lfoot 16.9965 -7.81898
ltoes -7.11181
39
root -11.5676 20.5181 -1.21283 501.858 95.1811 -2011.3
lowerback 15.2342 -1.2116 2.34766
upperback 4.7844 -1.05492 -0.576678
thorax -3.52124 -0.424849 -1.74954
lowerneck -7.59514 1.94803 -8.88579
upperneck 0.758996 3.34694 2.73961
head 1.36358 1.70418 2.54954
rclavicle 7.95139e-016 6.36111e-015
rhumerus -87.2738 -21.5918 20.506
rradius 9.16803
rwrist 131.626
rhand -26.0563 24.8674
rfingers 7.12502
rthumb 0.491327 -5.1118
lclavicle 7.95139e-016 6.36111e-015
lhumerus -79.2828 9.65353 30.3352
lradius 15.1641
lwrist -60.9903
lhand -5.60286 -18.2535
lfingers 7.12502
lthumb 20.2141 10.7147
rfemur -5.49227 -4.06063 24.5493
rtibia 43.8228
rfoot 14.5489 -6.16597
rtoes -10.4846
lfemur -9.85856 5.28255 -18.3645
ltibia 53.6556
lfoot 15.9162 -8.54161
ltoes -9.25814
40
root -11.3497 20.4988 -1.21955 502.336 95.2262 -2011.09
lowerback 15.5079 -1.1984 2.1578
upperback 4.79189 -1.05592 -0.578882
thorax -3.65695 -0.425181 -1.64157
lowerneck -7.64191 1.98715 -8.83309
upperneck 0.925186 3.39565 2.79754
head 1.42301 1.72536 2.56497
rclavicle 2.88238e-015 -8.74653e-015
rhumerus -83.5123 -20.1616 9.79044
rradius 8.59423
rwrist 120.216
rhand -26.6523 24.5216
rfingers 7.12502
rthumb -0.0842931 -5.45811
lclavicle 2.88238e-015 -8.74653e-015
lhumerus -79.5052 9.67593 31.6206
lradius 15.6392
lwrist -59.0993
lhand -6.14224 -18.2208
lfingers 7.12502
lthumb 19.6956 10.8014
rfemur -6.42208 -4.16671 24.6079
rtibia 43.1117
rfoot 13.6333 -5.77002
rtoes -10.964
lfemur -10.921 5.29233 -18.2748
ltibia 53.1335
lfoot 14.9007 -9.0532
ltoes -11.2283
41
root -11.1337 20.4657 -1.2262 502.761 95.2812 -2011
lowerback 15.6983 -1.18387 1.97285
upperback 4.79537 -1.05834 -0.575998
thorax -3.75217 -0.426197 -1.53151
lowerneck -7.64723 2.03188 -8.82182
upperneck 1.08735 3.45023 2.88985
head 1.47253 1.75 2.59884
rclavicle -8.74653e-015 1.07344e-014
rhumerus -80.236 -18.1755 -0.711178
rradius 8.3665
rwrist 108.745
rhand -27.252 24.4392
rfingers 7.12502
rthumb -0.663507 -5.53955
lclavicle -8.74653e-015 1.07344e-014
lhumerus -79.6272 9.58261 33.5851
lradius 16.2744
lwrist -56.3507
lhand -6.51649 -18.0633
lfingers 7.12502
lthumb 19.3358 10.9954
rfemur -7.45923 -4.14412 24.7118
rtibia 42.4101
rfoot 12.8219 -5.46479
rtoes -11.0798
lfemur -12.0184 5.17466 -18.1937
ltibia 52.5541
lfoot 13.9388 -9.17496
ltoes -12.5563
42
root -10.9175 20.4222 -1.23253 503.236 95.315 -2010.9
lowerback 15.86 -1.15392 1.76859
upperback 4.79954 -1.04483 -0.569381
thorax -3.83018 -0.419123 -1.40986
lowerneck -7.51193 2.05579 -8.80228
upperneck 1.12073 3.46528 2.92677
head 1.45796 1.7565 2.60532
rclavicle 2.31584e-014 8.34896e-015
rhumerus -77.5361 -15.7527 -10.9333
rradius 8.52517
rwrist 97.0804
rhand -27.6408 24.6726
rfingers 7.12502
rthumb -1.03903 -5.30461
lclavicle 2.31584e-014 8.34896e-015
lhumerus -79.7266 9.4784 35.7719
lradius 17.086
lwrist -53.4312
lhand -6.7469 -17.8638
lfingers 7.12502
lthumb 19.1142 11.2169
rfemur -8.56479 -4.08258 24.8112
rtibia 41.7087
rfoot 12.1306 -5.09411
rtoes -11.431
lfemur -13.1194 4.93128 -18.1304
ltibia 51.8887
lfoot 13.1787 -8.92466
ltoes -12.4237
43
root -10.6985 20.3724 -1.23826 504.061 95.3139 -2010.47
lowerback 15.9712 -1.12978 1.52048
upperback 4.81774 -1.0486 -0.589824
thorax -3.8667 -0.419837 -1.2892
lowerneck -7.3219 2.08107 -8.75651
upperneck 1.09719 3.47492 2.96203
head 1.41567 1.76156 2.60373
rclavicle 1.3418e-014 1.98785e-015
rhumerus -75.3825 -13.0686 -20.9864
rradius 9.06893
rwrist 85.3
rhand -27.7664 24.851
rfingers 7.12502
rthumb -1.16029 -5.12557
lclavicle 1.3418e-014 1.98785e-015
lhumerus -79.7398 9.29639 38.4279
lradius 18.07
lwrist -49.9427
lhand -6.74666 -17.5274
lfingers 7.12502
lthumb 19.1145 11.5534
rfemur -9.6685 -3.96305 24.8553
rtibia 40.9546
rfoot 11.5911 -4.62003
rtoes -11.7574
lfemur -14.2259 4.5335 -18.1292
ltibia 51.1676
lfoot 12.5133 -8.29511
ltoes -11.1744
44
root -10.4788 20.3152 -1.24517 504.532 95.34 -2010.4
lowerback 16.0582 -1.10705 1.31995
upperback 4.85634 -1.04607 -0.595077
thorax -3.86893 -0.416797 -1.18106
lowerneck -7.08062 2.10055 -8.65389
upperneck 0.976366 3.47106 2.90206
head 1.33528 1.76045 2.55605
rclavicle 4.67144e-015 -5.56597e-015
rhumerus -73.7187 -10.3144 -30.8904
rradius 9.88441
rwrist 73.4485
rhand -27.614 24.7615
rfingers 7.12502
rthumb -1.01307 -5.21582
lclavicle 4.67144e-015 -5.56597e-015
lhumerus -79.7244 9.13879 41.1607
lradius 19.2021
lwrist -46.3826
lhand -6.6416 -17.1731
lfingers 7.12502
lthumb 19.2155 11.8976
rfemur -10.7665 -3.83879 24.9401
rtibia 40.1126
rfoot 11.2827 -4.02489
rtoes -12.1949
lfemur -15.3271 3.97421 -18.0753
ltibia 50.4268
lfoot 11.8017 -7.45243
ltoes -9.7697
45
root -10.2552 20.2497 -1.25141 505.262 95.3306 -2010.04
lowerback 16.1514 -1.09297 1.05616
upperback 4.90692 -1.06469 -0.607262
thorax -3.86127 -0.423717 -1.04037
lowerneck -6.8396 2.13496 -8.5426
upperneck 0.868738 3.48658 2.84696
head 1.25836 1.76877 2.50936
rclavicle 5.06901e-015 -7.95139e-016
rhumerus -72.4479 -7.56103 -40.7451
rradius 10.7787
rwrist 61.5473
rhand -27.6259 24.2148
rfingers 7.12502
rthumb -1.02464 -5.76246
lclavicle 5.06901e-015 -7.95139e-016
lhumerus -79.7714 9.07836 43.7267
lradius 20.4562
lwrist -43.0339
lhand -6.5392 -16.8643
lfingers 7.12502
lthumb 19.314 12.1966
rfemur -11.776 -3.66271 24.9696
rtibia 39.1685
rfoot 11.1483 -3.46148
rtoes -12.5599
lfemur -16.35 3.23548 -18.0556
ltibia 49.6727
lfoot 11.0145 -6.40798
ltoes -8.2874
46
root -10.0291 20.177 -1.25689 505.784 95.3253 -2009.86
lowerback 16.2602 -1.06341 0.803647
upperback 4.97076 -1.05982 -0.608531
thorax -3.84711 -0.418658 -0.898997
lowerneck -6.69156 2.1387 -8.35153
upperneck 0.833944 3.46622 2.70598
head 1.22609 1.7566 2.42222
rclavicle 9.93923e-017 8.34896e-015
rhumerus -72.0676 -6.54379 -45.2269
rradius 11.6716
rwrist 55.0989
rhand -27.7976 24.493
rfingers 7.12502
rthumb -1.19045 -5.48339
lclavicle 9.93923e-017 8.34896e-015
lhumerus -79.7694 8.97942 46.3689
lradius 21.8483
lwrist -39.7327
lhand -6.43038 -16.5924
lfingers 7.12502
lthumb 19.4186 12.458
rfemur -12.7047 -3.41468 25.0078
rtibia 38.152
rfoot 11.093 -2.94842
rtoes -12.8107
lfemur -17.3232 2.32238 -17.9906
ltibia 48.905
lfoot 10.1282 -5.31656
ltoes -7.35766
47
root -9.80094 20.0989 -1.26118 506.027 95.292 -2009.87
lowerback 16.4612 -1.05431 0.553685
upperback 5.05999 -1.07942 -0.627575
thorax -3.85591 -0.424502 -0.772249
lowerneck -6.71456 2.15034 -8.05873
upperneck 0.904999 3.46473 2.52979
head 1.25898 1.75196 2.31159
rclavicle 7.65321e-015 5.56597e-015
rhumerus -71.7611 -5.93173 -48.8935
rradius 12.6476
rwrist 49.4689
rhand -27.9663 24.7756
rfingers 7.12502
rthumb -1.35333 -5.19982
lclavicle 7.65321e-015 5.56597e-015
lhumerus -79.7543 8.93146 48.9211
lradius 23.3689
lwrist -36.4347
lhand -6.3853 -16.302
lfingers 7.12502
lthumb 19.4619 12.744
rfemur -13.5168 -3.18417 25.036
rtibia 37.1202
rfoot 11.045 -2.41825
rtoes -13.5403
lfemur -18.166 1.29027 -17.8821
ltibia 48.1112
lfoot 9.14752 -4.15984
ltoes -6.96288
